<svg xmlns:xlink="http://www.w3.org/1999/xlink" xmlns="http://www.w3.org/2000/svg" class="MuiSvgIcon-root MuiSvgIcon-fontSizeInherit css-1cw4hi4" focusable="false" aria-hidden="true" viewBox="0 0 24 24" data-testid="AddToBagIcon" data-di-res-id="e1ff0971-523dfdc" data-di-rand="1740477408051" width="30"  height="30" ><path d="M6.434 9H4.5a1.5 1.5 0 0 0-1.486 1.703l1.227 9A1.5 1.5 0 0 0 5.728 21h12.254a1.5 1.5 0 0 0 1.486-1.297l1.227-9A1.5 1.5 0 0 0 19.21 9h-1.933c-.087-2.548-.848-4.078-1.933-4.96C14.208 3.118 12.826 3 11.855 3c-.975 0-2.355.126-3.49 1.051C7.282 4.936 6.521 6.464 6.434 9m1 0c.086-2.329.778-3.533 1.564-4.174.858-.7 1.942-.826 2.857-.826.917 0 2 .12 2.857.817.785.637 1.477 1.84 1.563 4.183zm8.868 1 .053 1.448a.5.5 0 0 0 1-.018c0-.528-.013-.987-.037-1.43h1.891a.5.5 0 0 1 .495.568l-1.227 9a.5.5 0 0 1-.495.432H5.728a.5.5 0 0 1-.496-.432l-1.227-9A.5.5 0 0 1 4.5 10h1.905q-.001.372.01.756.009.333.01.674a.5.5 0 1 0 1 0c0-.285-.006-.535-.012-.766-.005-.236-.01-.452-.008-.664z" fill="#333333"></path></svg>